<svg
  width="192"
  height="36"
  viewBox="0 0 192 36"
  fill="none"
  xmlns="http://www.w3.org/2000/svg"
>
  <path
    fillRule="evenodd"
    clipRule="evenodd"
    d="M46.1323 12.93C50.6764 11.0168 57.134 12.6909 57.134 18.9089V31.5043H53.0681V18.8292C53.0681 15.481 48.2848 15.3216 46.1323 16.6768V31.4246H42.0664V5.11775H46.1323V12.93ZM75.6297 27.8373C74.115 30.468 71.245 31.7435 68.6939 31.7435C64.8672 31.7435 61.1201 29.5114 61.1201 25.1268V18.3509C61.1201 13.8867 64.9468 11.7343 68.6939 11.7343C72.3611 11.7343 76.1878 13.8867 76.1878 18.3509V23.6122H65.186V25.1268C65.1063 28.3156 70.6072 29.033 72.1219 25.8443L75.6297 27.8373ZM72.2813 18.2712C72.2813 14.6838 65.1063 14.6041 65.2658 18.3509V20.1843H72.2813V18.2712ZM157.585 27.8373C156.07 30.468 153.2 31.7435 150.649 31.7435C146.822 31.7435 143.075 29.5114 143.075 25.1268V18.3509C143.075 13.8867 146.902 11.7343 150.649 11.7343C154.316 11.7343 158.143 13.8867 158.143 18.3509V23.6122H147.141V25.1268C147.061 28.3156 152.562 29.033 154.077 25.8443L157.585 27.8373ZM154.236 18.2712C154.236 14.6838 147.061 14.6041 147.221 18.3509V20.1843H154.236V18.2712ZM164.521 17.0754L162.129 14.8433C164.202 12.5315 166.673 11.814 169.145 11.814C172.892 11.814 176.718 13.807 176.718 18.1914V30.5477C170.978 32.7001 161.571 33.0987 161.571 24.9675C161.651 18.9089 168.347 17.7131 172.573 19.5466V18.3509C172.015 14.7636 166.912 14.5245 164.521 17.0754ZM172.652 22.9745C170.58 22.0179 165.796 21.6991 165.637 24.8877C165.398 28.7939 169.782 28.6345 172.652 27.917V22.9745ZM82.6453 17.0754L80.2537 14.8433C82.3265 12.5315 84.7978 11.814 87.2693 11.814C91.0162 11.814 94.8429 13.807 94.8429 18.1914V30.5477C89.1028 32.7001 79.6956 33.0987 79.6956 24.9675C79.6956 18.9089 86.472 17.7131 90.6973 19.5466V18.3509C90.0596 14.7636 84.9573 14.5245 82.6453 17.0754ZM90.6973 22.9745C88.7042 22.0179 83.8412 21.6991 83.6817 24.8877C83.4426 28.7939 87.8273 28.6345 90.6973 27.917V22.9745ZM106.323 12.1329C106.961 12.1329 107.678 12.1329 108.476 12.372V15.9593C106.323 15.3216 102.975 16.1985 102.975 18.8292V31.5043H98.9088V18.7495C98.9088 16.0391 100.423 13.9664 102.496 12.93C103.054 12.6112 103.692 12.4517 104.33 12.2924C104.41 12.2924 104.489 12.2924 104.569 12.2924C104.968 12.1329 105.765 12.1329 106.323 12.1329ZM120.035 31.6638C115.571 32.3014 111.744 30.468 111.744 24.9675V5.19744H115.81V12.2126H119.477V16.2782H115.81V24.8877C115.81 27.917 117.883 28.1562 120.115 28.1562V31.6638H120.035ZM128.008 4.79881V12.372C132.392 10.2196 139.169 12.5314 139.089 18.2712V25.366C138.451 33.2581 129.522 32.5406 123.942 30.3085V4.79881H128.008ZM128.008 27.917C130.24 28.8737 134.864 28.7939 135.023 25.366V18.1117C134.704 15.0027 130.32 14.4447 128.008 15.9593V27.917ZM187.959 24.8877V5.11775H183.654V12.2126H179.588V16.2782H183.654V24.8877C183.654 25.4458 183.734 25.9241 183.814 26.4024C183.814 26.4821 183.814 26.5618 183.814 26.6415C183.893 27.1198 183.973 27.5184 184.133 27.917C184.133 27.9967 184.212 28.0764 184.212 28.1562C184.372 28.5547 184.531 28.8737 184.77 29.1925C184.77 29.2722 184.85 29.2722 184.85 29.3519C185.089 29.6708 185.328 29.9897 185.568 30.2288C185.807 30.468 186.126 30.7071 186.445 30.8666C186.524 30.8666 186.524 30.9463 186.604 30.9463C186.923 31.1057 187.242 31.2651 187.561 31.4246C187.64 31.4246 187.72 31.5043 187.72 31.5043C188.039 31.584 188.438 31.7435 188.836 31.7435C188.916 31.7435 188.916 31.7435 188.996 31.7435C189.394 31.8231 189.793 31.8231 190.191 31.8231C190.75 31.8231 191.308 31.7435 191.866 31.6638V27.8373C189.713 27.8373 187.959 27.5981 187.959 24.8877Z"
    fill="#009B9F"
  />
  <path
    fillRule="evenodd"
    clipRule="evenodd"
    d="M16.6141 22.67C16.6141 22.8919 16.5703 23.1117 16.4853 23.3167C16.4003 23.5217 16.2756 23.7079 16.1186 23.8647C15.9614 24.0214 15.7749 24.1456 15.5697 24.2302C15.3645 24.3148 15.1447 24.3581 14.9228 24.3576H12.2617V29.85C12.2617 32.7843 14.2338 35.0893 17.2693 35.6993C18.1602 35.8698 19.0754 35.8698 19.9662 35.6993C23.0041 35.0893 24.9741 32.7843 24.9741 29.85V24.3576H22.3113C22.0892 24.3579 21.8694 24.3144 21.6642 24.2297C21.4591 24.1448 21.2728 24.0204 21.1158 23.8634C20.9588 23.7065 20.8344 23.5202 20.7495 23.3151C20.6647 23.11 20.6211 22.8902 20.6214 22.6682V29.8482C20.6214 30.8663 19.8009 31.271 19.1119 31.4308C18.7857 31.4991 18.4489 31.4991 18.1226 31.4308C17.4347 31.271 16.6141 30.8663 16.6141 29.8482V22.67Z"
    fill="#009B9F"
  />
  <path
    fillRule="evenodd"
    clipRule="evenodd"
    d="M13.95 20.0047H6.74994C5.73338 20.0047 5.32804 19.1825 5.16779 18.4933C5.09948 18.1676 5.09948 17.8313 5.16779 17.5055C5.32804 16.8152 5.73338 15.9941 6.74994 15.9941H13.9267C13.4787 15.9936 13.0493 15.8152 12.7327 15.4982C12.4162 15.1811 12.2387 14.7514 12.239 14.3034V11.6401H6.75052C3.81857 11.6401 1.51466 13.6134 0.903441 16.651C0.735311 17.5425 0.735311 18.4576 0.903441 19.349C1.51466 22.3868 3.81857 24.3588 6.75052 24.3588H12.2623V21.6942C12.2618 21.2511 12.4356 20.8255 12.7461 20.5095C13.0567 20.1934 13.479 20.0121 13.9221 20.0047"
    fill="#009B9F"
  />
  <path
    fillRule="evenodd"
    clipRule="evenodd"
    d="M36.3088 16.6492C35.6985 13.6134 33.3936 11.6401 30.4634 11.6401H24.9508V6.14764C24.9508 3.21549 22.9789 0.910226 19.9432 0.300561C19.0521 0.130388 18.1369 0.130388 17.2459 0.300561C14.208 0.910226 12.2383 3.21549 12.2383 6.14764V14.3049C12.2379 14.7529 12.4156 15.1827 12.7321 15.4998C13.0486 15.8168 13.4779 15.9951 13.926 15.9956H14.9018C15.1236 15.9954 15.3432 15.9515 15.5481 15.8665C15.753 15.7813 15.9391 15.6568 16.0958 15.4998C16.2526 15.3428 16.3768 15.1565 16.4615 14.9515C16.5462 14.7465 16.5897 14.5268 16.5895 14.3049V6.14618C16.5895 5.12991 17.4094 4.72516 18.0986 4.56559C18.2609 4.53017 18.4266 4.51256 18.5927 4.51314C18.7591 4.51276 18.9252 4.53037 19.0879 4.56559C19.7762 4.72516 20.5961 5.12991 20.5961 6.14618V14.3081C20.5967 14.7552 20.7748 15.1839 21.0912 15.5C21.4077 15.816 21.8366 15.9934 22.2838 15.9934H30.4619C31.4773 15.9934 31.883 16.8145 32.0423 17.505C32.1118 17.8305 32.1118 18.1671 32.0423 18.4926C31.883 19.1818 31.4773 20.0041 30.4619 20.0041H22.3096C22.0879 20.0038 21.8681 20.0473 21.6631 20.132C21.4581 20.2166 21.2718 20.341 21.1148 20.4976C20.9579 20.6544 20.8334 20.8405 20.7484 21.0454C20.6635 21.2503 20.6198 21.4699 20.6198 21.6918V22.67C20.6196 22.8919 20.6631 23.1117 20.7479 23.3168C20.8327 23.5219 20.9573 23.7082 21.1142 23.8652C21.2712 24.0221 21.4576 24.1466 21.6627 24.2314C21.8678 24.3162 22.0877 24.3597 22.3096 24.3594H30.4619C33.3931 24.3594 35.697 22.3862 36.3073 19.3485C36.4762 18.4568 36.4762 17.5414 36.3073 16.6498L36.3088 16.6492ZM16.614 22.6693V21.6933C16.614 21.4714 16.5702 21.2516 16.4852 21.0466C16.4002 20.8417 16.2755 20.6554 16.1184 20.4987C15.9614 20.342 15.7748 20.2177 15.5696 20.1331C15.3644 20.0485 15.1446 20.0052 14.9227 20.0057H13.9213C13.4786 20.013 13.0565 20.1941 12.746 20.5097C12.4355 20.8254 12.2615 21.2505 12.2616 21.6933V24.3575H14.9227C15.1446 24.358 15.3644 24.3148 15.5696 24.2302C15.7748 24.1456 15.9614 24.0213 16.1184 23.8646C16.2755 23.7079 16.4002 23.5216 16.4852 23.3166C16.5702 23.1116 16.614 22.8919 16.614 22.67V22.6693Z"
    fill="#FF396F"
  />
</svg>
